<svg id="Layer_1" data-name="Layer 1" xmlns="http://www.w3.org/2000/svg" viewBox="0 0 107.43 113.25"><defs><style>.cls-1,.cls-2,.cls-3{fill:none;stroke-miterlimit:10;stroke-width:3px;}.cls-1{stroke:#ef372c;}.cls-2{stroke:#6e6488;}.cls-3{stroke:#057cb0;}</style></defs><title>flower-logo</title><path class="cls-1" d="M18.56,61C20.72,90.21,37,103.78,55.72,102.39S88.54,85.19,86.38,56,67.28,4.27,48.56,5.65,16.4,31.83,18.56,61Z"/><path class="cls-2" d="M102.53,66.9c-2.77,25.64-19.87,36.83-39.23,34.74S29.64,84.94,32.42,59.31,53.14,14.6,72.5,16.69,105.31,41.27,102.53,66.9Z"/><path class="cls-3" d="M13.5,89.65C26.91,110,46.37,111.84,62,101.5s21.64-28.95,8.23-49.28-37-28.44-52.66-18.11S.09,69.32,13.5,89.65Z"/></svg>